<svg xmlns="http://www.w3.org/2000/svg" viewBox="0 0 100 125"><path d="M94.021 11.858a1.823 1.823 0 00-1.222-.689l-49.98-6.022a1.836 1.836 0 00-2.04 1.602l-1.017 8.439L7.081 27.119c-.46.168-.827.505-1.033.95a1.824 1.824 0 00-.061 1.402l23.482 64.323a1.84 1.84 0 002.352 1.094l37.895-13.835 14.455 1.741a1.836 1.836 0 002.04-1.602l8.191-67.985a1.82 1.82 0 00-.381-1.349zM31.214 93.117L7.722 28.877l31.793-11.633-6.926 57.49a1.836 1.836 0 001.601 2.04l31.422 3.785-34.398 12.558z"/><text y="115" font-size="5" font-weight="bold" font-family="'Helvetica Neue', Helvetica, Arial-Unicode, Arial, Sans-serif">Created by Cards Against Humanity</text><text y="120" font-size="5" font-weight="bold" font-family="'Helvetica Neue', Helvetica, Arial-Unicode, Arial, Sans-serif">from the Noun Project</text></svg>